<svg height="15pt" viewBox="0 0 512 512" width="15pt" xmlns="http://www.w3.org/2000/svg"><path d="m256 0c-141.484375 0-256 114.496094-256 256 0 141.484375 114.496094 256 256 256 141.484375 0 256-114.496094 256-256 0-141.484375-114.496094-256-256-256zm0 472c-119.378906 0-216-96.609375-216-216 0-119.378906 96.609375-216 216-216 119.378906 0 216 96.609375 216 216 0 119.378906-96.609375 216-216 216zm180-269.332031v76c0 11.046875-8.953125 20-20 20s-20-8.953125-20-20v-27.714844l-72.523438 72.523437c-7.8125 7.808594-20.476562 7.808594-28.285156 0l-92.523437-92.523437-92.523438 92.523437c-7.8125 7.808594-20.472656 7.8125-28.285156 0-7.808594-7.8125-7.808594-20.476562 0-28.285156l106.667969-106.667968c7.8125-7.808594 20.472656-7.808594 28.285156 0l92.523438 92.527343 58.378906-58.382812h-27.714844c-11.046875 0-20-8.953125-20-20s8.953125-20 20-20h76c11.210938 0 20 9.191406 20 20zm0 0"/></svg>