<?xml version="1.0"?>
<svg xmlns="http://www.w3.org/2000/svg" id="Capa_1" enable-background="new 0 0 512 512" height="40px" viewBox="0 0 512 512" width="40px"><g><g><path d="m196.606 244.484c-5.857-5.858-15.355-5.858-21.213 0s-5.858 15.355 0 21.213l46.667 46.667c2.929 2.929 6.768 4.394 10.606 4.394s7.678-1.464 10.606-4.394l93.333-93.333c5.858-5.858 5.858-15.355 0-21.213-5.857-5.858-15.355-5.858-21.213 0l-82.727 82.726z" data-original="#000000" class="active-path" data-old_color="#000000" fill="#1273EB"/><path d="m445.91 70c-43.235 0-82.625-23.756-102.796-61.998-2.595-4.922-7.703-8.002-13.267-8.002h-147.694c-5.564 0-10.672 3.08-13.268 8.002-20.17 38.242-59.56 61.998-102.885 61.998-8.284 0-15 6.716-15 15v152.751c0 61.408 19.187 120.046 55.486 169.576 36.301 49.53 86.439 85.484 144.997 103.976 1.47.464 2.993.696 4.517.696s3.047-.232 4.517-.696c58.558-18.492 108.696-54.446 144.997-103.976 36.299-49.53 55.486-108.168 55.486-169.576v-152.751c0-8.284-6.806-15-15.09-15zm-14.91 167.751c0 111.014-70.126 208.26-175 243.474-104.874-35.214-175-132.46-175-243.474v-138.504c45.398-4.608 85.998-30.085 109.878-69.247h130.245c23.867 39.142 64.443 64.613 109.877 69.24z" data-original="#000000" class="active-path" data-old_color="#000000" fill="#1273EB"/><path d="m309.598 65.508c-2.849-3.486-7.114-5.508-11.616-5.508h-83.965c-4.502 0-8.766 2.022-11.614 5.508-21.21 25.951-49.25 45.201-81.088 55.667-6.155 2.023-10.315 7.77-10.315 14.25v102.327c0 91.862 54.649 174.007 139.227 209.274 1.848.77 3.811 1.155 5.773 1.155s3.926-.385 5.773-1.155c84.578-35.267 139.227-117.412 139.227-209.274v-102.317c0-6.479-4.159-12.226-10.314-14.25-31.839-10.47-59.879-29.722-81.088-55.677zm61.402 172.244c0 77.604-44.931 147.211-115 179.07-70.069-31.858-115-101.465-115-179.07v-91.774c30.784-11.964 58.157-31.114 79.968-55.978h70.063c21.812 24.867 49.182 44.02 79.969 55.986z" data-original="#000000" class="active-path" data-old_color="#000000" fill="#1273EB"/></g></g> </svg>
